<?xml version="1.0" standalone="no"?>
<!DOCTYPE svg PUBLIC "-//W3C//DTD SVG 20010904//EN"
 "http://www.w3.org/TR/2001/REC-SVG-20010904/DTD/svg10.dtd">
<svg version="1.0" xmlns="http://www.w3.org/2000/svg"
 width="64.000000pt" height="84.000000pt" viewBox="0 0 64.000000 84.000000"
 preserveAspectRatio="xMidYMid meet">

<g transform="translate(0.000000,84.000000) scale(0.100000,-0.100000)"
fill="#000000" stroke="none">
<path d="M245 741 c-65 -29 -97 -91 -94 -183 3 -101 17 -154 18 -70 1 58 12
79 25 50 5 -10 7 -10 12 0 3 6 10 10 15 6 5 -3 15 -2 22 3 8 5 2 10 -18 14
l-30 7 28 1 c38 1 34 19 -5 23 -44 4 -47 33 -11 76 30 35 80 50 127 38 32 -8
80 -84 64 -103 -6 -7 -21 -13 -34 -13 -13 0 -24 -5 -24 -11 0 -7 10 -9 24 -5
14 3 28 2 31 -4 4 -6 -7 -10 -27 -10 -27 -1 -30 -2 -15 -11 9 -5 21 -8 26 -4
5 3 12 1 16 -4 3 -6 12 -8 20 -5 11 4 16 -7 21 -45 7 -56 24 -70 24 -18 -1 17
-1 59 -1 92 1 73 -31 144 -71 163 -36 17 -118 24 -143 13z"/>
<path d="M320 501 c0 -6 4 -13 10 -16 6 -3 7 1 4 9 -7 18 -14 21 -14 7z"/>
<path d="M275 411 l-40 -7 50 -5 c28 -3 57 -2 65 2 8 5 10 9 3 9 -6 0 -17 2
-25 4 -7 1 -31 0 -53 -3z"/>
<path d="M395 365 c-75 -62 -121 -65 -173 -14 -23 22 -29 25 -27 12 2 -10 4
-27 4 -37 1 -11 4 -16 7 -13 4 4 20 -3 37 -15 39 -28 90 -25 140 8 33 22 37
22 38 7 1 -29 17 16 18 50 1 33 -5 33 -44 2z"/>
</g>
</svg>
